<svg width="158" height="158" viewBox="0 0 158 158" fill="none" xmlns="http://www.w3.org/2000/svg">
<circle cx="79" cy="79" r="79" fill="white"/>
<path d="M133.979 127L121.806 126.933C112.253 126.888 103.643 121.011 99.7577 111.938L84 75L88.3581 75.0447C100.595 75.1117 111.844 82.0167 117.856 93.1229L134 127H133.979Z" fill="url(#paint0_linear_1260_3993)"/>
<path d="M116.979 54.0233C115.289 60.3569 109.791 65 103.246 65C95.3745 65 89 58.2833 89 49.9887C89 41.6942 95.3958 35 103.267 35C106.241 35 109 35.9467 111.289 37.592C110.049 39.3276 109.3 41.4914 109.3 43.8355C109.3 48.7941 112.594 52.9639 117 54.0233H116.979Z" fill="#FFBA59"/>
<path d="M125 43.9885C125 47.8402 122.093 51 118.5 51C117.902 51 117.325 50.9078 116.768 50.7464C114.031 49.939 112 47.2175 112 44.0116C112 42.5585 112.407 41.1746 113.155 40.0675C114.31 38.2224 116.276 37 118.5 37C122.071 37 125 40.1598 125 44.0116V43.9885Z" fill="#FFBA59"/>
<path d="M82.3739 75H69.424V45.916C69.424 39.8712 64.622 35 58.712 35C52.7802 35 48 39.8934 48 45.916V116.084C48 122.128 52.8019 127 58.712 127C64.6438 127 69.424 122.106 69.424 116.084V88.6278C69.6629 86.5022 70.38 82.8045 72.4876 80.2803C75.5296 76.6712 79 76.5 82 76L89 75H82.3739Z" fill="#1B2E61"/>
<path d="M42 61.9554C42 56.4572 37.7468 52 32.5 52C27.2533 52 23 56.4572 23 61.9554V95.0445C23 100.543 27.2533 105 32.5 105C37.7468 105 42 100.543 42 95.0445V61.9554Z" fill="#1B2E61"/>
<defs>
<linearGradient id="paint0_linear_1260_3993" x1="125.713" y1="120.967" x2="89.0271" y2="84.6267" gradientUnits="userSpaceOnUse">
<stop stop-color="#6682C1"/>
<stop offset="0.32" stop-color="#5D7ABC"/>
<stop offset="0.82" stop-color="#4765AE"/>
<stop offset="1" stop-color="#3D5CA9"/>
</linearGradient>
</defs>
</svg>
